<svg xmlns="http://www.w3.org/2000/svg" viewBox="0 0 600 327" role="img" aria-label="Library System">
  <g transform="translate(0,327) scale(0.1,-0.1)" fill="#c9a84c" stroke="none">
    <path d="M2842 2680 c-118 -31 -206 -83 -302 -180 -143 -142 -211 -305 -213
-505 -1 -142 29 -259 95 -370 l22 -39 164 170 c97 100 158 170 150 173 -7 2
-16 9 -20 15 -9 14 -279 -264 -273 -281 5 -14 -19 -36 -28 -26 -4 3 -2 12 4
20 9 10 6 25 -9 61 -53 124 -69 309 -36 436 61 240 256 434 484 482 204 43
408 -23 558 -181 232 -243 250 -627 41 -887 -58 -73 -126 -129 -209 -172 -191
-100 -430 -86 -603 37 l-29 20 73 73 c41 41 77 74 80 74 4 0 53 -27 108 -59
l101 -60 204 115 204 116 -24 23 c-17 17 -24 35 -24 64 0 33 6 46 38 75 33 32
37 41 37 85 0 44 -4 54 -37 88 -45 46 -52 99 -18 133 11 11 20 22 20 24 0 2
-15 13 -34 24 -33 19 -35 19 -50 3 -9 -10 -16 -23 -16 -29 0 -6 -8 -13 -17
-16 -10 -3 -45 -36 -78 -73 -42 -48 -51 -62 -31 -49 16 10 45 28 65 39 20 11
44 27 54 35 15 14 17 13 17 -10 0 -14 3 -39 6 -54 5 -29 2 -31 -140 -112 -80
-45 -148 -82 -151 -82 -3 0 -5 21 -5 46 0 45 4 51 88 141 48 52 117 127 153
166 l66 72 36 -28 37 -28 0 95 0 96 -27 0 c-15 0 -67 -5 -116 -11 l-89 -12 32
-20 32 -20 -25 -23 -25 -23 -88 52 c-49 29 -92 51 -96 50 -4 -2 -95 -53 -203
-114 -204 -116 -225 -134 -225 -197 0 -54 38 -92 170 -169 69 -40 135 -77 147
-83 12 -5 40 -21 62 -35 22 -14 45 -25 49 -25 5 0 70 34 143 76 207 118 259
145 259 134 0 -6 -4 -10 -10 -10 -5 0 -7 -13 -4 -29 3 -16 1 -38 -5 -49 -6
-11 -94 -68 -196 -126 l-185 -105 -87 51 c-49 28 -90 53 -93 55 -2 2 9 16 25
30 21 20 25 28 14 31 -8 3 -17 9 -20 15 -4 5 -86 -71 -182 -169 -166 -169
-174 -180 -159 -197 15 -17 23 -11 150 117 l134 135 90 -51 c49 -28 93 -59 99
-70 6 -10 9 -36 7 -58 l-3 -39 -97 59 -97 58 -110 -111 -110 -111 52 -38 c133
-96 254 -132 417 -126 169 7 301 64 425 183 115 110 182 241 212 411 14 82 15
109 5 190 -35 279 -193 490 -441 590 -120 48 -262 57 -389 24z m385 -412
c-200 -212 -224 -240 -209 -245 6 -3 12 -9 12 -14 0 -6 -15 1 -32 14 -18 13
-95 59 -171 102 l-138 78 156 88 156 88 55 -30 c30 -17 54 -34 54 -37 0 -4
-43 -50 -96 -103 -95 -96 -95 -96 -72 -111 22 -14 27 -11 163 132 125 132 144
147 182 154 23 4 47 14 53 21 7 8 17 15 22 15 5 0 -55 -69 -135 -152z m143 81
c0 -35 -2 -40 -17 -34 -10 4 -23 8 -30 8 -14 0 -3 26 23 51 22 23 24 21 24
-25z m-224 -34 c-3 -9 -11 -13 -16 -10 -8 5 -7 11 1 21 14 18 24 11 15 -11z
m204 -109 c0 -3 -5 -17 -10 -32 -8 -19 -14 -24 -21 -17 -7 7 -7 17 3 32 11 19
28 28 28 17z m-535 -130 l160 -94 3 -51 c2 -28 1 -51 -2 -51 -10 0 -290 162
-323 187 -21 15 -33 33 -33 48 0 32 10 55 24 54 6 0 83 -42 171 -93z m202
-232 c-12 -12 -37 5 -30 21 5 15 7 15 21 1 9 -9 13 -18 9 -22z m337 11 c-4 -9
-15 -20 -26 -26 -16 -9 -19 -19 -16 -61 l3 -50 -90 -52 c-49 -28 -116 -66
-147 -84 l-58 -32 0 52 0 53 143 81 c78 45 142 87 142 94 0 12 32 40 47 40 4
0 5 -7 2 -15z m-340 -190 c-4 -8 -10 -15 -15 -15 -5 0 -9 7 -9 15 0 8 7 15 15
15 9 0 12 -6 9 -15z m6 -130 c11 -13 8 -15 -14 -15 -25 0 -33 10 -19 23 10 11
19 8 33 -8z"/>
  </g>
</svg>
