<?xml version="1.0" standalone="no"?>
<!DOCTYPE svg PUBLIC "-//W3C//DTD SVG 20010904//EN"
 "http://www.w3.org/TR/2001/REC-SVG-20010904/DTD/svg10.dtd">
<svg version="1.0" xmlns="http://www.w3.org/2000/svg"
 viewBox="0 0 600.000000 327.000000"
 preserveAspectRatio="xMidYMid meet">
<g transform="translate(0.000000,327.000000) scale(0.100000,-0.100000)"
fill="#c9a84c" stroke="none">
<path d="M2842 2680 c-118 -31 -206 -83 -302 -180 -143 -142 -211 -305 -213
-505 -1 -142 29 -259 95 -370 l22 -39 164 170 c97 100 158 170 150 173 -7 2
-16 9 -20 15 -9 14 -279 -264 -273 -281 5 -14 -19 -36 -28 -26 -4 3 -2 12 4
20 9 10 6 25 -9 61 -53 124 -69 309 -36 436 61 240 256 434 484 482 204 43
408 -23 558 -181 232 -243 250 -627 41 -887 -58 -73 -126 -129 -209 -172 -191
-100 -430 -86 -603 37 l-29 20 73 73 c41 41 77 74 80 74 4 0 53 -27 108 -59
l101 -60 204 115 204 116 -24 23 c-17 17 -24 35 -24 64 0 33 6 46 38 75 33 32
37 41 37 85 0 44 -4 54 -37 88 -45 46 -52 99 -18 133 11 11 20 22 20 24 0 2
-15 13 -34 24 -33 19 -35 19 -50 3 -9 -10 -16 -23 -16 -29 0 -6 -8 -13 -17
-16 -10 -3 -45 -36 -78 -73 -42 -48 -51 -62 -31 -49 16 10 45 28 65 39 20 11
44 27 54 35 15 14 17 13 17 -10 0 -14 3 -39 6 -54 5 -29 2 -31 -140 -112 -80
-45 -148 -82 -151 -82 -3 0 -5 21 -5 46 0 45 4 51 88 141 48 52 117 127 153
166 l66 72 36 -28 37 -28 0 95 0 96 -27 0 c-15 0 -67 -5 -116 -11 l-89 -12 32
-20 32 -20 -25 -23 -25 -23 -88 52 c-49 29 -92 51 -96 50 -4 -2 -95 -53 -203
-114 -204 -116 -225 -134 -225 -197 0 -54 38 -92 170 -169 69 -40 135 -77 147
-83 12 -5 40 -21 62 -35 22 -14 45 -25 49 -25 5 0 70 34 143 76 207 118 259
145 259 134 0 -6 -4 -10 -10 -10 -5 0 -7 -13 -4 -29 3 -16 1 -38 -5 -49 -6
-11 -94 -68 -196 -126 l-185 -105 -87 51 c-49 28 -90 53 -93 55 -2 2 9 16 25
30 21 20 25 28 14 31 -8 3 -17 9 -20 15 -4 5 -86 -71 -182 -169 -166 -169
-174 -180 -159 -197 15 -17 23 -11 150 117 l134 135 90 -51 c49 -28 93 -59 99
-70 6 -10 9 -36 7 -58 l-3 -39 -97 59 -97 58 -110 -111 -110 -111 52 -38 c133
-96 254 -132 417 -126 169 7 301 64 425 183 115 110 182 241 212 411 14 82 15
109 5 190 -35 279 -193 490 -441 590 -120 48 -262 57 -389 24z m385 -412
c-200 -212 -224 -240 -209 -245 6 -3 12 -9 12 -14 0 -6 -15 1 -32 14 -18 13
-95 59 -171 102 l-138 78 156 88 156 88 55 -30 c30 -17 54 -34 54 -37 0 -4
-43 -50 -96 -103 -95 -96 -95 -96 -72 -111 22 -14 27 -11 163 132 125 132 144
147 182 154 23 4 47 14 53 21 7 8 17 15 22 15 5 0 -55 -69 -135 -152z m143 81
c0 -35 -2 -40 -17 -34 -10 4 -23 8 -30 8 -14 0 -3 26 23 51 22 23 24 21 24
-25z m-224 -34 c-3 -9 -11 -13 -16 -10 -8 5 -7 11 1 21 14 18 24 11 15 -11z
m204 -109 c0 -3 -5 -17 -10 -32 -8 -19 -14 -24 -21 -17 -7 7 -7 17 3 32 11 19
28 28 28 17z m-535 -130 l160 -94 3 -51 c2 -28 1 -51 -2 -51 -10 0 -290 162
-323 187 -21 15 -33 33 -33 48 0 32 10 55 24 54 6 0 83 -42 171 -93z m202
-232 c-12 -12 -37 5 -30 21 5 15 7 15 21 1 9 -9 13 -18 9 -22z m337 11 c-4 -9
-15 -20 -26 -26 -16 -9 -19 -19 -16 -61 l3 -50 -90 -52 c-49 -28 -116 -66
-147 -84 l-58 -32 0 52 0 53 143 81 c78 45 142 87 142 94 0 12 32 40 47 40 4
0 5 -7 2 -15z m-340 -190 c-4 -8 -10 -15 -15 -15 -5 0 -9 7 -9 15 0 8 7 15 15
15 9 0 12 -6 9 -15z m6 -130 c11 -13 8 -15 -14 -15 -25 0 -33 10 -19 23 10 11
19 8 33 -8z"/>
<path d="M1800 1053 c-4 -29 0 -283 4 -283 3 0 47 0 96 0 83 0 90 1 90 20 0
18 -7 20 -70 20 l-70 0 0 123 0 122 -25 0 c-14 0 -25 -1 -25 -2z"/>
<path d="M2030 910 l0 -147 30 5 31 4 -3 141 -3 140 -27 1 -28 2 0 -146z"/>
<path d="M2140 913 l0 -143 88 0 c75 0 92 3 110 20 37 35 22 120 -21 120 -6 0
-1 7 11 16 16 11 22 25 22 54 0 54 -24 67 -127 72 l-83 3 0 -142z m148 85 c31
-31 -2 -68 -63 -68 -19 0 -23 6 -27 40 l-4 40 41 0 c23 0 46 -5 53 -12z m-98
-89 c0 -5 -4 -9 -8 -9 -5 0 -9 7 -9 15 0 8 4 12 9 9 4 -3 8 -9 8 -15z m114
-41 c19 -31 -4 -53 -60 -56 l-49 -3 2 43 c1 24 2 43 2 43 1 1 22 -2 47 -5 29
-3 51 -12 58 -22z"/>
<path d="M2410 910 l0 -145 25 0 c24 0 25 3 25 58 0 54 1 57 24 57 21 0 29
-10 51 -57 23 -52 29 -58 55 -58 37 0 37 7 1 73 -16 28 -25 52 -21 52 5 0 18
10 30 22 25 28 26 78 1 109 -17 21 -30 25 -105 29 l-86 5 0 -145z m144 79 c27
-39 3 -69 -56 -69 l-38 0 0 45 0 45 39 0 c29 0 44 -6 55 -21z m-106 -94 c-3
-3 -9 2 -12 12 -6 14 -5 15 5 6 7 -7 10 -15 7 -18z"/>
<path d="M2748 1030 c-14 -35 -98 -263 -98 -265 0 -1 13 0 30 3 22 3 32 12 40
36 10 31 11 31 69 28 56 -3 59 -5 67 -34 8 -25 15 -31 42 -33 28 -2 32 0 26
14 -3 9 -29 75 -56 146 -48 128 -49 130 -79 130 -24 0 -34 -6 -41 -25z m66
-104 c9 -27 16 -50 16 -51 0 -2 -18 -2 -40 -1 -22 0 -40 3 -40 5 0 19 35 110
41 104 3 -5 14 -30 23 -57z m-84 -60 c0 -3 -4 -8 -10 -11 -5 -3 -10 -1 -10 4
0 6 5 11 10 11 6 0 10 -2 10 -4z"/>
<path d="M3064 1051 c-2 -2 -4 -67 -4 -143 l0 -138 30 0 30 0 0 60 0 60 55 0
c48 0 55 2 55 20 0 18 -7 20 -58 20 l-58 0 4 40 4 40 64 0 c60 0 64 2 64 23 0
21 -3 22 -91 22 -50 0 -93 -2 -95 -4z m46 -141 c0 -5 -5 -10 -11 -10 -5 0 -7
5 -4 10 3 6 8 10 11 10 2 0 4 -4 4 -10z"/>
<path d="M3300 1053 c-4 -29 0 -283 4 -283 3 0 47 0 96 0 83 0 90 1 90 20 0
18 -7 20 -70 20 l-70 0 0 123 0 122 -25 0 c-14 0 -25 -1 -25 -2z"/>
<path d="M3581 1042 c-48 -24 -73 -62 -78 -119 -13 -154 178 -223 264 -94 63
94 -9 231 -122 231 -16 0 -45 -8 -64 -18z m116 -47 c30 -21 44 -75 32 -120
-18 -66 -97 -88 -144 -40 -20 19 -25 34 -25 75 0 41 5 56 25 75 28 29 79 33
112 10z"/>
<path d="M3815 1040 c7 -24 52 -191 64 -236 10 -38 12 -40 45 -36 l34 4 23 99
c13 54 26 99 29 99 3 0 16 -45 30 -100 l24 -101 35 3 35 3 37 140 c21 76 37
140 36 141 -1 1 -14 0 -29 -3 -25 -5 -28 -12 -49 -102 -12 -53 -24 -103 -26
-111 -3 -8 -14 21 -24 65 -38 156 -35 150 -69 150 -16 0 -30 0 -30 0 0 0 -13
-52 -29 -115 -21 -84 -31 -108 -35 -90 -50 222 -44 205 -76 205 -22 0 -29 -4
-25 -15z m215 -41 c0 -5 -9 -9 -20 -9 -19 0 -26 11 -14 23 8 8 34 -3 34 -14z
m-101 -188 c8 -5 9 -11 3 -15 -5 -3 -15 1 -22 9 -14 16 -3 20 19 6z m191 -1
c0 -5 -6 -10 -14 -10 -8 0 -18 5 -21 10 -3 6 3 10 14 10 12 0 21 -4 21 -10z"/>
<path d="M2045 600 c-9 -28 -14 -54 -11 -57 3 -3 8 2 12 11 8 20 44 21 44 1 0
-8 5 -15 11 -15 7 0 8 7 4 18 -4 9 -12 31 -17 47 -18 50 -25 49 -43 -5z m35
-12 c0 -5 -4 -8 -10 -8 -5 0 -10 10 -10 23 0 18 2 19 10 7 5 -8 10 -18 10 -22z"/>
<path d="M2131 636 c-17 -20 -10 -77 11 -90 14 -8 22 -7 35 6 9 10 13 21 9 25
-4 4 -11 1 -16 -6 -13 -21 -40 -5 -40 24 0 29 27 45 40 24 5 -7 12 -10 16 -6
9 9 -15 37 -31 37 -7 0 -18 -6 -24 -14z"/>
<path d="M2215 600 c-9 -28 -14 -54 -11 -57 3 -3 8 2 12 11 8 20 44 21 44 0 0
-8 4 -13 9 -10 8 6 -17 87 -31 101 -3 4 -14 -17 -23 -45z m35 -12 c0 -5 -4 -8
-10 -8 -5 0 -10 10 -10 23 0 18 2 19 10 7 5 -8 10 -18 10 -22z"/>
<path d="M2290 594 l0 -56 27 7 c46 11 59 58 25 88 -37 34 -52 22 -52 -39z
m45 1 c0 -16 -6 -30 -12 -32 -9 -3 -13 7 -13 32 0 25 4 35 13 33 6 -3 12 -17
12 -33z"/>
<path d="M2380 595 c0 -54 0 -55 30 -55 17 0 30 5 30 10 0 6 -11 10 -25 10
-34 0 -32 28 3 33 l27 4 -27 2 c-36 1 -39 31 -3 31 14 0 25 5 25 10 0 6 -13
10 -30 10 -30 0 -30 -1 -30 -55z"/>
<path d="M2460 594 c0 -30 4 -53 8 -50 5 3 7 20 5 38 -3 30 -3 31 7 9 16 -37
24 -17 9 23 -19 52 -29 44 -29 -20z"/>
<path d="M2506 641 c-8 -13 5 -101 15 -101 12 0 11 97 0 105 -5 3 -12 1 -15
-4z"/>
<path d="M2550 640 c0 -5 5 -10 10 -10 6 0 10 -16 10 -35 0 -19 -4 -35 -10
-35 -5 0 -10 -4 -10 -8 0 -5 14 -9 30 -10 17 0 30 4 30 9 0 5 -6 9 -13 9 -8 0
-13 13 -13 35 0 22 5 35 13 35 7 0 13 5 13 10 0 6 -13 10 -30 10 -16 0 -30 -4
-30 -10z"/>
<path d="M2641 636 c-17 -20 -10 -77 11 -90 14 -8 22 -7 35 6 9 10 13 21 9 25
-4 4 -11 1 -16 -6 -13 -21 -40 -5 -40 24 0 29 27 45 40 24 5 -7 12 -10 16 -6
9 9 -15 37 -31 37 -7 0 -18 -6 -24 -14z"/>
<path d="M2802 598 c3 -47 6 -53 27 -56 13 -2 28 1 34 7 8 8 3 11 -16 11 -25
0 -27 3 -27 45 0 25 -5 45 -11 45 -6 0 -9 -21 -7 -52z"/>
<path d="M2885 640 c-3 -5 1 -10 9 -10 12 0 16 -10 16 -35 0 -25 -4 -35 -16
-35 -8 0 -13 -4 -10 -8 7 -12 66 -13 66 -1 0 5 -7 9 -15 9 -10 0 -15 11 -15
35 0 25 4 35 16 35 8 0 12 5 9 10 -3 6 -17 10 -30 10 -13 0 -27 -4 -30 -10z"/>
<path d="M2970 595 c0 -58 9 -67 50 -45 15 8 18 17 13 48 -6 39 -17 52 -45 52
-15 0 -18 -9 -18 -55z m48 23 c-7 -19 -38 -22 -38 -4 0 10 9 16 21 16 12 0 19
-5 17 -12z m2 -43 c0 -8 -9 -15 -20 -15 -11 0 -20 7 -20 15 0 8 9 15 20 15 11
0 20 -7 20 -15z"/>
<path d="M3057 643 c-11 -10 -8 -103 3 -103 6 0 10 12 10 28 l1 27 24 -30 c24
-29 35 -26 16 4 -6 9 -5 21 2 32 18 30 -31 67 -56 42z m43 -28 c0 -8 -7 -15
-15 -15 -8 0 -15 7 -15 15 0 8 7 15 15 15 8 0 15 -7 15 -15z"/>
<path d="M3151 609 c-7 -23 -15 -47 -18 -55 -3 -8 0 -14 6 -14 6 0 11 7 11 15
0 8 9 15 20 15 11 0 20 -7 20 -15 0 -8 5 -15 11 -15 6 0 9 6 6 14 -3 8 -11 32
-18 55 -7 23 -15 41 -19 41 -4 0 -12 -18 -19 -41z m29 -14 c0 -8 -4 -15 -10
-15 -5 0 -10 7 -10 15 0 8 5 15 10 15 6 0 10 -7 10 -15z"/>
<path d="M3227 643 c-11 -10 -8 -91 3 -98 6 -4 10 6 10 22 l1 28 24 -30 c24
-29 35 -26 16 4 -6 9 -5 21 2 32 18 30 -31 67 -56 42z m43 -28 c0 -8 -7 -15
-15 -15 -8 0 -15 7 -15 15 0 8 7 15 15 15 8 0 15 -7 15 -15z"/>
<path d="M3300 643 c1 -5 7 -19 15 -33 8 -14 14 -35 15 -47 0 -33 20 -28 20 5
0 15 7 36 15 46 17 23 19 36 5 36 -5 0 -12 -11 -16 -25 -3 -14 -10 -25 -14
-25 -4 0 -11 11 -14 25 -6 22 -27 37 -26 18z"/>
<path d="M3493 643 c-22 -8 -14 -43 12 -53 30 -11 33 -30 5 -30 -11 0 -20 5
-20 10 0 6 -4 10 -10 10 -17 0 -11 -19 9 -30 11 -5 27 -7 35 -4 25 10 19 43
-9 54 -26 10 -34 30 -12 30 7 0 18 -5 25 -12 9 -9 12 -8 12 4 0 12 -24 32 -33
27 -1 0 -8 -3 -14 -6z"/>
<path d="M3565 620 c8 -16 15 -38 15 -49 0 -11 5 -23 10 -26 6 -3 10 3 10 15
0 12 7 35 16 51 8 17 13 33 11 36 -3 3 -12 -8 -20 -24 l-15 -28 -11 28 c-6 15
-15 27 -21 27 -6 0 -4 -12 5 -30z"/>
<path d="M3663 643 c-22 -8 -14 -43 12 -53 30 -11 33 -30 5 -30 -11 0 -20 5
-20 10 0 6 -4 10 -10 10 -17 0 -11 -19 9 -30 11 -5 27 -7 35 -4 25 10 19 43
-9 54 -26 10 -34 30 -12 30 7 0 18 -5 25 -12 9 -9 12 -8 12 4 0 12 -24 32 -33
27 -1 0 -8 -3 -14 -6z"/>
<path d="M3720 640 c0 -5 9 -10 19 -10 16 0 18 -5 14 -39 -3 -23 -1 -41 6 -45
7 -5 11 7 11 38 0 34 4 46 15 46 8 0 15 5 15 10 0 6 -18 10 -40 10 -22 0 -40
-4 -40 -10z"/>
<path d="M3820 595 c0 -54 0 -55 30 -55 17 0 30 5 30 10 0 6 -11 10 -25 10
-34 0 -32 28 3 33 l27 4 -27 2 c-36 1 -39 31 -3 31 14 0 25 5 25 10 0 6 -13
10 -30 10 -30 0 -30 -1 -30 -55z"/>
<path d="M3900 594 c0 -30 4 -53 8 -50 5 3 7 20 5 38 l-4 33 15 -25 c8 -14 15
-19 16 -12 0 14 -28 72 -35 72 -3 0 -5 -25 -5 -56z"/>
<path d="M3947 636 c-8 -19 4 -96 14 -96 12 0 12 97 0 104 -5 3 -11 0 -14 -8z"/>
</g>
</svg>